<?xml version="1.0" encoding="utf-8"?>
<!-- Generator: Adobe Illustrator 22.0.0, SVG Export Plug-In . SVG Version: 6.00 Build 0)  -->
<svg version="1.1" id="圖層_1" xmlns="http://www.w3.org/2000/svg" xmlns:xlink="http://www.w3.org/1999/xlink" x="0px" y="0px"
	 viewBox="0 0 208 43.7" style="enable-background:new 0 0 208 43.7;" xml:space="preserve">
<style type="text/css">
	.st0{fill:#A2938B;}
	.st1{fill:none;}
	.st2{fill:#D6C1B6;}
	.st3{fill:#73C8E3;}
	.st4{fill:#7C6F6A;}
	.st5{fill:#837772;}
	.st6{font-size:5.3546px;}
	.st7{letter-spacing:2;}
	.st8{fill:#D5BFBB;}
	.st9{fill:none;stroke:#D5BFBB;stroke-width:1.0612;stroke-miterlimit:10;}
</style>
<g>
	<g>
		<g>
			<polygon class="st0" points="42,15.8 42,15.8 42,15.8 			"/>
			<path class="st0" d="M51,25.9c-0.8,3.6-3.6,6.3-6.8,6.8c0.1,0.4,0.2,0.7,0.2,1.1c0.1,1,0.1,2.1-0.1,3.1c0,0,0,0,0,0
				c-0.1,0.6-0.4,1.2-0.6,1.8c-0.2,0.5-0.6,1-0.9,1.5c-0.7,0.9-1.5,1.6-2.4,2.2c4.3,0.6,9.7-0.3,13.5-2.6c4.3-2.6,6.6-7,6.4-12.6
				c-0.1-1.6-0.2-3.1-0.4-4.6l-8.6,1.6C51.2,24.8,51.1,25.3,51,25.9z"/>
		</g>
		<path class="st0" d="M34.9,5.7c0.3,0.3,0.6,0.4,1,0.6c0.5,0.2,0.9,0.3,1.5,0.5c0.7,0.2,1.5,0.4,2.2,0.8c1.6,0.9,2.8,2.1,3.4,3.4
			c0.5,1.2,0.6,2.6,0.3,4.1c1.1-0.4,2.3-0.6,3.5-0.3c3.4,0.8,5.4,4.5,4.5,8.3l8.3-1.5c-0.6-3.4-1.6-6.6-2.8-9.2
			c-1.9-4.1-4.3-6.8-9-7.9C43.9,3.5,38.9,3.9,34.9,5.7z"/>
		<g>
			<path class="st1" d="M29.9,15.2c-0.1-0.1-0.2-0.1-0.2-0.2L29.9,15.2z"/>
			<path class="st2" d="M9.1,1.5C5.7,1.8,3.3,4.8,2.8,7.9c-0.4,2.4,0.2,4.5,1.3,6.7c0.9,1.8,1.7,4.6,0.6,6.5c-0.6,1-2.3,1.9-3.1,2.7
				c-1.8,1.9-1.9,4.3-0.7,6.6c0.6,1.2,1.7,1.9,3.1,2c1.4,0.1,2.7-0.2,4.1,0.4c1.6,0.6,2.6,1.6,3.3,3.1c0.6,1.3,1.4,3,2.6,3.9
				c1.6,1.2,3.7,1.5,5.7,1.3c1-0.1,2.2-0.5,3.1-0.8c1-0.2,1.7-0.1,2.7,0.1c1.7,0.3,3.5,0.8,5.2,1.3c2.1,0.6,4.5,1.4,6.7,0.9
				c0.5-0.1,1-0.3,1.5-0.5c1.2-0.6,2.3-1.5,3.1-2.6c0.3-0.4,0.6-0.9,0.8-1.3c0.6-1.3,0.9-2.8,0.7-4.3c-0.1-0.4-0.1-0.8-0.3-1.1
				c-0.4-1.5-1.2-2.7-2-4.1c-0.4-0.7-0.7-1.5-0.9-2.4L36,27.1l-8.1,1.5l-1,0.2c-0.9,0.2-1.9,0.2-2.8,0c-3.6-0.8-5.8-4.8-4.9-8.9
				c0.8-3.6,3.9-6.1,7.1-6L9.7,1.5C9.5,1.5,9.3,1.5,9.1,1.5z"/>
			<path class="st2" d="M29.9,15.2c-0.1-0.1-0.2-0.1-0.2-0.2L18.5,6.7c0.2,0.1,0.3,0.1,0.5,0.2c1,0.3,2.3,0,2.7-1c0,0,0-0.1,0.1-0.1
				c0.5-1.4,0.4-2.5,1.7-3.6c1.7-1.4,4.4-1.1,6.2-0.1c1.8,0.9,2.8,2.8,4.2,4.2c0.5,0.4,1,0.8,1.6,1.1c1.2,0.5,2.5,0.6,3.6,1.2
				c1.2,0.7,2.4,1.6,3,2.9c0.6,1.2,0.4,2.6,0.1,3.9c0,0.1-0.1,0.3-0.1,0.4l0,0l0,0c-0.4,1.2-1.1,2.2-1.6,3.4c-0.5,1.3-0.7,2.7-0.7,4
				c0,0.7,0.1,1.3,0.2,2L30,27.1c1.1-1,2-2.5,2.4-4.1c0.4-1.7,0.2-3.4-0.3-4.8C32.1,18.1,31.4,16.3,29.9,15.2z"/>
		</g>
	</g>
	<path class="st3" d="M20.1,2.7C20.1,2.7,20.1,2.7,20.1,2.7c0-0.1,0-0.2,0-0.3c0,0,0-0.1,0-0.1c0,0,0-0.1,0-0.1c0,0,0-0.1,0-0.1
		c-0.1-0.2-0.2-0.5-0.5-0.8C19,0.6,18.8,0,18.8,0v0h0l0,0l0,0c0,0-0.2,0.6-0.8,1.3c-0.2,0.3-0.4,0.5-0.5,0.7c0,0,0,0,0,0.1
		c0,0.1,0,0.1-0.1,0.2c0,0,0,0,0,0.1c0,0.1,0,0.2,0,0.2c0,0,0,0,0,0c0,0,0,0,0,0c0,0.1,0,0.1,0,0.2l0,0C17.4,3.5,18,4,18.7,4
		s1.3-0.5,1.4-1.2l0,0C20.1,2.8,20.1,2.8,20.1,2.7C20.1,2.7,20.1,2.7,20.1,2.7z"/>
</g>
<g>
	<g>
		<path class="st4" d="M87.1,5.7h-4.9c-0.1,0-0.2,0-0.3,0c-0.1,0-0.2,0-0.2-0.1c-0.1,0-0.1-0.1-0.2-0.1c0,0-0.1-0.1-0.1-0.2h-0.1
			v1.9h0.1c0-0.5,0.2-0.8,0.4-1C82,6.1,82.3,6,82.7,6h1.5v6.5c0,0.3-0.1,0.5-0.2,0.7c-0.2,0.1-0.3,0.2-0.6,0.2v0.1h2.4v-0.1
			c-0.6,0-0.8-0.3-0.8-0.9V6h1.5c0.4,0,0.7,0.1,0.9,0.2c0.3,0.1,0.4,0.5,0.4,1H88V5.3h-0.1C87.7,5.6,87.4,5.7,87.1,5.7z"/>
		<path class="st4" d="M94,13.3c-0.4-0.1-0.7-0.4-1-0.7c-0.3-0.3-0.5-0.7-0.7-1.2c-0.2-0.5-0.3-1.1-0.3-1.7c0-0.8,0.1-1.4,0.3-1.9
			c0.2-0.5,0.5-0.9,0.8-1.2c0.3-0.3,0.7-0.5,1-0.6c0.2,0,0.3-0.1,0.5-0.1V5.6c-0.3,0-0.7,0.1-1,0.3c-0.5,0.2-0.9,0.5-1.3,0.9
			C91.9,7,91.6,7.5,91.4,8c-0.2,0.5-0.3,1-0.3,1.6c0,0.7,0.2,1.4,0.5,2.1c0.4,0.6,0.8,1.1,1.5,1.5c0.5,0.3,1,0.5,1.5,0.5v-0.3
			C94.4,13.4,94.2,13.3,94,13.3z"/>
		<path class="st4" d="M96.4,6c0.5,0.2,0.9,0.6,1.2,1.2c0.4,0.6,0.5,1.4,0.5,2.4c0,0.7-0.1,1.3-0.3,1.8c-0.2,0.5-0.4,0.9-0.7,1.2
			c-0.3,0.3-0.6,0.5-1,0.6c-0.2,0.1-0.4,0.1-0.6,0.1v0.3c0.6-0.1,1.1-0.2,1.5-0.5c0.6-0.4,1.1-0.9,1.4-1.5c0.4-0.6,0.5-1.3,0.5-2
			C99.1,9,99,8.5,98.8,8c-0.2-0.5-0.5-0.9-0.9-1.3c-0.4-0.4-0.8-0.7-1.3-0.8c-0.3-0.1-0.7-0.2-1-0.2v0.3C95.9,5.9,96.2,5.9,96.4,6z"
			/>
		<path class="st4" d="M102.6,6.1c0.1,0.1,0.2,0.3,0.3,0.5l2.2,7.1h0.1l2.1-6.4h0l1.9,6.4h0.1l2.1-6.4c0.1-0.4,0.3-0.7,0.4-0.9
			c0.1-0.2,0.2-0.3,0.4-0.4c0.1-0.1,0.3-0.1,0.4-0.2V5.7h-1.8v0.1c0.2,0,0.4,0.1,0.5,0.1c0.1,0.1,0.2,0.2,0.2,0.4
			c0,0.1,0,0.3-0.1,0.4c0,0.2-0.1,0.3-0.1,0.5l-1.6,4.9h0L108,6.9c-0.1-0.2-0.1-0.3-0.1-0.5c0-0.1,0-0.2,0.1-0.4
			c0.1-0.1,0.3-0.2,0.5-0.2V5.7h-2.4v0.1c0.3,0,0.5,0.1,0.6,0.3c0.1,0.2,0.2,0.4,0.3,0.6l0.1,0.2l-1.7,5.3h0l-1.6-5.3
			c-0.1-0.2-0.1-0.3-0.1-0.5c0-0.2,0.1-0.3,0.2-0.4c0.1-0.1,0.3-0.2,0.5-0.2V5.7H102v0.1c0.1,0,0.2,0,0.3,0.1
			C102.4,5.9,102.5,6,102.6,6.1z"/>
		<path class="st4" d="M116.5,6.5l0.3,0.3v5.1c0,0.4,0,0.8-0.1,1c0,0.2-0.1,0.4-0.3,0.5c-0.1,0.1-0.3,0.1-0.5,0.1v0.1h1.9v-0.1
			c-0.3,0-0.5-0.1-0.7-0.3c-0.1-0.1-0.1-0.2-0.1-0.4c0-0.2,0-0.5,0-0.9V7l5.8,6.7h0.1V6.9c0-0.3,0-0.5,0.1-0.6
			c0.1-0.1,0.1-0.2,0.3-0.3c0.1-0.1,0.3-0.1,0.5-0.1V5.7h-1.9v0.1c0.3,0,0.5,0.1,0.6,0.2c0.1,0.1,0.2,0.3,0.2,0.4c0,0.2,0,0.5,0,0.8
			v5l-5.8-6.6h-1.4v0.1c0.2,0,0.4,0.1,0.5,0.2C116.1,6,116.2,6.2,116.5,6.5z"/>
		<path class="st4" d="M87.1,18.7h-4.9c-0.1,0-0.2,0-0.3,0c-0.1,0-0.2,0-0.2-0.1c-0.1,0-0.1-0.1-0.2-0.1c0,0-0.1-0.1-0.1-0.2h-0.1
			v1.9h0.1c0-0.5,0.2-0.8,0.4-1c0.3-0.1,0.6-0.2,0.9-0.2h1.5v6.5c0,0.3-0.1,0.5-0.2,0.7c-0.2,0.1-0.3,0.2-0.6,0.2v0.1h2.4v-0.1
			c-0.6,0-0.8-0.3-0.8-0.9V19h1.5c0.4,0,0.7,0.1,0.9,0.2c0.3,0.1,0.4,0.5,0.4,1H88v-1.9h-0.1C87.7,18.6,87.4,18.7,87.1,18.7z"/>
		<path class="st4" d="M104,25.7c0-0.2,0-0.5,0-0.9V20l5.8,6.7h0.1v-6.8c0-0.3,0-0.5,0.1-0.6c0.1-0.1,0.1-0.2,0.3-0.3
			c0.1-0.1,0.3-0.1,0.5-0.1v-0.1h-1.9v0.1c0.3,0,0.5,0.1,0.6,0.2c0.1,0.1,0.2,0.3,0.2,0.4c0,0.2,0,0.5,0,0.8v5l-5.8-6.6h-1.4v0.1
			c0.2,0,0.4,0.1,0.5,0.2c0.1,0.1,0.3,0.2,0.5,0.5l0.3,0.3v5.1c0,0.4,0,0.8-0.1,1c0,0.2-0.1,0.4-0.3,0.5c-0.1,0.1-0.3,0.1-0.5,0.1
			v0.1h1.9v-0.1c-0.3,0-0.5-0.1-0.7-0.3C104,26,104,25.9,104,25.7z"/>
		<path class="st4" d="M118.6,26.7c0.8,0,1.6-0.1,2.3-0.3v-2.2c0-0.2,0-0.4,0.1-0.5c0-0.1,0.1-0.2,0.2-0.3c0.1-0.1,0.3-0.1,0.5-0.2
			v-0.1h-2.5v0.1c0.3,0,0.5,0.1,0.6,0.2c0.1,0.1,0.2,0.3,0.2,0.7v1.4c0,0.2,0,0.4-0.1,0.5c-0.1,0.1-0.2,0.2-0.4,0.3
			c-0.2,0.1-0.6,0.1-1.1,0.1c-1.2,0-2.1-0.4-2.7-1.1c-0.6-0.7-0.8-1.7-0.8-2.9c0-0.8,0.1-1.4,0.3-1.9c0.2-0.5,0.5-0.9,0.9-1.1
			c0.3-0.3,0.7-0.4,1.1-0.5c0.4-0.1,0.7-0.2,1-0.2c0.6,0,1.2,0.1,1.6,0.4c0.5,0.3,0.8,0.7,0.9,1.2h0.1v-1.8h-0.1
			c-0.1,0.2-0.2,0.3-0.4,0.3c-0.1,0-0.2,0-0.4-0.1c-0.5-0.1-0.8-0.2-1-0.2c-0.2,0-0.5,0-0.7,0c-0.6,0-1.2,0.1-1.7,0.3
			c-0.5,0.2-1,0.5-1.3,0.9c-0.4,0.4-0.6,0.8-0.8,1.3c-0.2,0.5-0.3,1-0.3,1.5c0,0.9,0.3,1.7,0.8,2.4c0.3,0.5,0.7,0.8,1.2,1.1
			c0.4,0.2,0.9,0.4,1.3,0.5S118.2,26.7,118.6,26.7z"/>
		<path class="st4" d="M127.5,26.1c-0.3-0.2-0.6-0.5-0.7-0.9c-0.2-0.4-0.2-0.9-0.2-1.7v-3.8c0-0.2,0-0.4,0.1-0.6
			c0.1-0.2,0.3-0.3,0.7-0.3v-0.1H125v0.1c0.3,0,0.6,0.1,0.7,0.3c0.1,0.2,0.1,0.4,0.1,0.6v3.9c0,0.3,0,0.6,0.1,0.9
			c0,0.3,0.1,0.6,0.3,0.9c0.2,0.4,0.5,0.7,1,1c0.3,0.2,0.7,0.3,1.1,0.3v-0.3C127.9,26.3,127.7,26.2,127.5,26.1z"/>
		<path class="st4" d="M129.9,26.3c0.4-0.2,0.8-0.6,1-1.2l0,0v1.3h1.6v-0.1c-0.2,0-0.3-0.1-0.4-0.1c-0.1,0-0.2-0.1-0.3-0.3
			c-0.1-0.1-0.1-0.3-0.1-0.5v-5.9c0-0.2,0-0.4,0.1-0.6c0.1-0.2,0.3-0.3,0.7-0.3v-0.1h-2.4v0.1c0.4,0,0.6,0.1,0.7,0.3
			c0.1,0.2,0.1,0.4,0.1,0.6v4.2c0,1-0.3,1.7-0.9,2.1c-0.2,0.1-0.4,0.3-0.7,0.3c-0.1,0-0.1,0-0.1,0v0.2
			C129.4,26.5,129.6,26.5,129.9,26.3z"/>
		<path class="st4" d="M140.6,25.3c-0.1,0.2-0.2,0.4-0.3,0.5c-0.1,0.1-0.2,0.3-0.4,0.3c-0.2,0.1-0.4,0.1-0.7,0.1h-1.1
			c-0.3,0-0.5-0.1-0.5-0.2c-0.1-0.2-0.1-0.3-0.1-0.5v-2.8h1.5c0.1,0,0.3,0,0.4,0c0.1,0,0.1,0,0.2,0.1c0.1,0,0.2,0.1,0.3,0.2
			c0.1,0.1,0.1,0.3,0.2,0.5h0.1v-1.8H140c0,0.3-0.2,0.5-0.4,0.6c-0.2,0.1-0.5,0.1-0.7,0.1h-1.4v-3.5h1.6c0.9,0,1.3,0.3,1.3,1h0.1
			v-1.2h-4.5v0.1h0.1c0.3,0,0.4,0.1,0.6,0.3c0.1,0.2,0.2,0.4,0.2,0.6v5.9c0,0.3-0.1,0.5-0.2,0.7c-0.2,0.1-0.3,0.2-0.5,0.2h-0.1v0.1
			h4.5L140.6,25.3L140.6,25.3z"/>
		<path class="st4" d="M155,13.2c0,0,0.1,0,0.2,0.1c0.2,0.1,0.5,0.2,0.7,0.3c0.2,0.1,0.5,0.1,0.8,0.1c0.5,0,0.9-0.1,1.3-0.3
			c0.3-0.2,0.6-0.4,0.8-0.8c0.2-0.3,0.3-0.6,0.3-1c0-0.5-0.2-1-0.5-1.3c-0.3-0.3-0.7-0.6-1.3-0.9c-0.3-0.2-0.6-0.3-0.8-0.5
			c-0.2-0.1-0.4-0.3-0.5-0.4c-0.1-0.1-0.3-0.3-0.3-0.5c-0.1-0.2-0.1-0.4-0.1-0.6c0-0.3,0.1-0.6,0.2-0.8c0.1-0.2,0.3-0.4,0.5-0.6
			c0.2-0.1,0.5-0.2,0.8-0.2c0.4,0,0.8,0.1,1.1,0.4c0.3,0.3,0.4,0.6,0.5,1h0.1V5.5h-0.1c0,0.2-0.1,0.2-0.2,0.2c-0.1,0-0.2,0-0.2,0
			c-0.4-0.1-0.7-0.2-1-0.2c-0.4,0-0.8,0.1-1.2,0.3c-0.3,0.2-0.6,0.5-0.8,0.8c-0.2,0.3-0.3,0.7-0.3,1c0,0.3,0.1,0.6,0.2,0.8
			c0.1,0.2,0.3,0.5,0.4,0.6c0.2,0.2,0.4,0.3,0.5,0.4c0.2,0.1,0.4,0.3,0.8,0.5c0.5,0.3,0.9,0.6,1.2,0.8c0.3,0.3,0.4,0.6,0.4,1.1
			c0,0.2,0,0.4-0.1,0.6c-0.1,0.2-0.3,0.4-0.5,0.5c-0.2,0.1-0.5,0.2-0.9,0.2c-0.5,0-0.9-0.1-1.3-0.4c-0.4-0.3-0.6-0.7-0.7-1.3h-0.1
			v1.9h0.1c0-0.2,0.1-0.3,0.1-0.3C154.9,13.2,155,13.2,155,13.2z"/>
		<path class="st4" d="M158.9,19.3c-0.2-0.2-0.5-0.4-0.8-0.5c-0.3-0.1-0.7-0.2-1.1-0.2h-2.5v0.1h0.1c0,0,0.1,0,0.2,0
			c0.1,0,0.2,0.1,0.2,0.1c0.1,0.1,0.1,0.1,0.2,0.3c0.1,0.1,0.1,0.3,0.1,0.4v5.9c0,0.3-0.1,0.5-0.2,0.6c-0.2,0.1-0.3,0.2-0.6,0.2v0.1
			h2.4v-0.1c-0.6,0-0.8-0.3-0.8-0.9v-2.7c0.4,0,0.7,0.1,0.8,0.1c0.4,0,0.8-0.1,1.2-0.2c0.3-0.1,0.6-0.3,0.8-0.5
			c0.2-0.2,0.4-0.4,0.5-0.7c0.1-0.3,0.1-0.5,0.1-0.8c0-0.3-0.1-0.5-0.2-0.8C159.3,19.7,159.1,19.5,158.9,19.3z M158.2,22.3
			c-0.3,0.3-0.8,0.4-1.3,0.4c-0.3,0-0.5,0-0.8-0.1v-3.7c0.2,0,0.5-0.1,0.7-0.1c0.6,0,1.1,0.2,1.4,0.6c0.3,0.4,0.5,0.8,0.5,1.4
			C158.7,21.5,158.5,22,158.2,22.3z"/>
		<path class="st4" d="M168.1,25.1l-0.7-1.2c-0.4-0.7-0.8-1.1-1.3-1.3v0c0.4-0.1,0.7-0.2,0.9-0.4c0.2-0.2,0.4-0.4,0.5-0.7
			c0.1-0.3,0.2-0.5,0.2-0.8c0-0.2,0-0.4-0.1-0.7c-0.1-0.2-0.2-0.4-0.4-0.7c-0.2-0.2-0.4-0.4-0.7-0.5c-0.3-0.1-0.7-0.2-1.1-0.2h-2.6
			v0.1h0.1c0.2,0,0.3,0.1,0.5,0.2c0.1,0.1,0.2,0.3,0.2,0.7v5.9c0,0.2,0,0.4-0.1,0.5c-0.1,0.1-0.2,0.2-0.3,0.3
			c-0.1,0.1-0.3,0.1-0.4,0.1v0.1h2.4v-0.1c-0.6,0-0.8-0.3-0.8-0.9v-2.8c0.2,0,0.3,0,0.5,0c0.1,0,0.3,0.1,0.4,0.2
			c0.2,0.1,0.3,0.2,0.5,0.4c0.2,0.2,0.4,0.4,0.6,0.8l0.9,1.5c0,0,0.1,0.1,0.1,0.2c0.1,0.1,0.1,0.2,0.2,0.2c0.1,0.1,0.1,0.2,0.2,0.2
			c0.1,0.1,0.1,0.1,0.2,0.2h1.4v-0.1c-0.2,0-0.4-0.1-0.6-0.2C168.7,25.9,168.4,25.6,168.1,25.1z M164.9,22.4h-0.4v-3.5
			c0.1,0,0.3,0,0.5,0c0.5,0,0.9,0.1,1.1,0.3c0.3,0.2,0.5,0.4,0.6,0.7c0.1,0.3,0.2,0.6,0.2,0.9c0,0.4-0.1,0.7-0.2,0.9
			c-0.1,0.2-0.3,0.4-0.6,0.6C165.8,22.4,165.4,22.4,164.9,22.4z"/>
		<path class="st4" d="M177,25.7c-0.1,0.1-0.2,0.3-0.4,0.3c-0.2,0.1-0.4,0.1-0.7,0.1h-1.1c-0.3,0-0.5-0.1-0.5-0.2
			c-0.1-0.2-0.1-0.3-0.1-0.5v-2.8h1.5c0.1,0,0.3,0,0.4,0c0.1,0,0.1,0,0.2,0.1c0.1,0,0.2,0.1,0.3,0.2c0.1,0.1,0.1,0.3,0.2,0.5h0.1
			v-1.8h-0.1c0,0.3-0.2,0.5-0.4,0.6c-0.2,0.1-0.5,0.1-0.7,0.1h-1.4v-3.5h1.6c0.9,0,1.3,0.3,1.3,1h0.1v-1.2h-4.5v0.1h0.1
			c0.3,0,0.4,0.1,0.6,0.3c0.1,0.2,0.2,0.4,0.2,0.6v5.9c0,0.3-0.1,0.5-0.2,0.7c-0.2,0.1-0.3,0.2-0.5,0.2h-0.1v0.1h4.5l0.3-1.2h-0.1
			C177.2,25.4,177.1,25.6,177,25.7z"/>
		<path class="st4" d="M186.3,18.6h-4.9c-0.1,0-0.2,0-0.3,0c-0.1,0-0.2,0-0.2-0.1c-0.1,0-0.1-0.1-0.2-0.1c0,0-0.1-0.1-0.1-0.2h-0.1
			v1.9h0.1c0-0.5,0.2-0.8,0.4-1c0.3-0.1,0.6-0.2,0.9-0.2h1.5v6.5c0,0.3-0.1,0.5-0.2,0.7c-0.2,0.1-0.3,0.2-0.6,0.2v0.1h2.4v-0.1
			c-0.6,0-0.8-0.3-0.8-0.9v-6.5h1.5c0.4,0,0.7,0.1,0.9,0.2c0.3,0.1,0.4,0.5,0.4,1h0.1v-1.9H187C186.8,18.5,186.6,18.6,186.3,18.6z"
			/>
		<path class="st4" d="M196.2,18.6h-4.9c-0.1,0-0.2,0-0.3,0c-0.1,0-0.2,0-0.2-0.1c-0.1,0-0.1-0.1-0.2-0.1c0,0-0.1-0.1-0.1-0.2h-0.1
			v1.9h0.1c0-0.5,0.2-0.8,0.4-1c0.3-0.1,0.6-0.2,0.9-0.2h1.5v6.5c0,0.3-0.1,0.5-0.2,0.7c-0.2,0.1-0.3,0.2-0.6,0.2v0.1h2.4v-0.1
			c-0.6,0-0.8-0.3-0.8-0.9v-6.5h1.5c0.4,0,0.7,0.1,0.9,0.2c0.3,0.1,0.4,0.5,0.4,1h0.1v-1.9H197C196.8,18.5,196.6,18.6,196.2,18.6z"
			/>
		<path class="st4" d="M205.2,18.7c0.1,0,0.1,0,0.2,0.1c0.1,0,0.1,0.1,0.2,0.1c0.1,0.1,0.1,0.2,0.1,0.3c0,0.2-0.1,0.4-0.3,0.7
			l-1.4,2.2l-1.6-2.4c-0.1-0.2-0.2-0.4-0.2-0.5c0-0.1,0-0.2,0.1-0.3c0.1-0.1,0.3-0.2,0.5-0.2v-0.1H200v0.1c0.3,0,0.5,0.1,0.7,0.2
			c0.2,0.1,0.3,0.3,0.6,0.6l1.9,3v3c0,0.3-0.1,0.5-0.2,0.6c-0.1,0.1-0.3,0.2-0.6,0.2v0.1h2.4v-0.1c-0.2,0-0.4-0.1-0.6-0.2
			c-0.2-0.1-0.2-0.3-0.2-0.6v-3.1l1.8-2.7c0.1-0.2,0.2-0.3,0.3-0.4c0.1-0.1,0.2-0.2,0.4-0.3c0.2-0.1,0.4-0.2,0.6-0.2v-0.1
			L205.2,18.7L205.2,18.7z"/>
	</g>
	<path class="st4" d="M94,26.2c-0.4-0.1-0.7-0.4-1-0.7c-0.3-0.3-0.5-0.7-0.7-1.2c-0.2-0.5-0.3-1.1-0.3-1.7c0-0.8,0.1-1.4,0.3-1.9
		c0.2-0.5,0.5-0.9,0.8-1.2c0.3-0.3,0.7-0.5,1-0.6c0.2,0,0.3-0.1,0.5-0.1v-0.2c-0.3,0-0.7,0.1-1,0.3c-0.5,0.2-0.9,0.5-1.3,0.9
		c-0.4,0.4-0.7,0.8-0.9,1.3c-0.2,0.5-0.3,1-0.3,1.6c0,0.7,0.2,1.4,0.5,2.1c0.4,0.6,0.8,1.1,1.5,1.5c0.5,0.3,1,0.5,1.5,0.5v-0.3
		C94.4,26.3,94.2,26.3,94,26.2z"/>
	<path class="st4" d="M96.4,19c0.5,0.2,0.9,0.6,1.2,1.2c0.4,0.6,0.5,1.4,0.5,2.4c0,0.7-0.1,1.3-0.3,1.8c-0.2,0.5-0.4,0.9-0.7,1.2
		c-0.3,0.3-0.6,0.5-1,0.6c-0.2,0.1-0.4,0.1-0.6,0.1v0.3c0.6-0.1,1.1-0.2,1.5-0.5c0.6-0.4,1.1-0.9,1.4-1.5c0.4-0.6,0.5-1.3,0.5-2
		c0-0.6-0.1-1.2-0.3-1.7c-0.2-0.5-0.5-0.9-0.9-1.3c-0.4-0.4-0.8-0.7-1.3-0.8c-0.3-0.1-0.7-0.2-1-0.2v0.3
		C95.9,18.8,96.2,18.9,96.4,19z"/>
	<path class="st4" d="M167,13.1c-0.4-0.1-0.7-0.4-1-0.7c-0.3-0.3-0.5-0.7-0.7-1.2c-0.2-0.5-0.3-1.1-0.3-1.7c0-0.8,0.1-1.4,0.3-1.9
		c0.2-0.5,0.5-0.9,0.8-1.2c0.3-0.3,0.7-0.5,1-0.6c0.2,0,0.3-0.1,0.5-0.1V5.4c-0.3,0-0.7,0.1-1,0.3c-0.5,0.2-0.9,0.5-1.3,0.9
		c-0.4,0.4-0.7,0.8-0.9,1.3c-0.2,0.5-0.3,1-0.3,1.6c0,0.7,0.2,1.4,0.5,2.1c0.4,0.6,0.8,1.1,1.5,1.5c0.5,0.3,1,0.5,1.5,0.5v-0.3
		C167.4,13.3,167.2,13.2,167,13.1z"/>
	<path class="st4" d="M169.5,5.9c0.5,0.2,0.9,0.6,1.2,1.2c0.4,0.6,0.5,1.4,0.5,2.4c0,0.7-0.1,1.3-0.3,1.8c-0.2,0.5-0.4,0.9-0.7,1.2
		c-0.3,0.3-0.6,0.5-1,0.6c-0.2,0.1-0.4,0.1-0.6,0.1v0.3c0.6-0.1,1.1-0.2,1.5-0.5c0.6-0.4,1.1-0.9,1.4-1.5c0.4-0.6,0.5-1.3,0.5-2
		c0-0.6-0.1-1.2-0.3-1.7c-0.2-0.5-0.5-0.9-0.9-1.3c-0.4-0.4-0.8-0.7-1.3-0.8c-0.3-0.1-0.7-0.2-1-0.2v0.3
		C168.9,5.7,169.2,5.8,169.5,5.9z"/>
	<g>
		<text transform="matrix(0.98 0 0 1 82.2877 40.6329)" class="st5 st6 st7">WORKSHOP</text>
	</g>
	<rect x="131.9" y="39.7" class="st8" width="74.1" height="0.5"/>
	
		<rect x="145.8" y="25.7" transform="matrix(0.5298 -0.8481 0.8481 0.5298 46.7435 136.7225)" class="st4" width="1.7" height="1.1"/>
</g>
<line class="st9" x1="69.6" y1="5.1" x2="69.6" y2="41.9"/>
</svg>
